<svg xmlns="http://www.w3.org/2000/svg" id="Layer_1" data-name="Layer 1" viewBox="0 0 150 150"><defs><style>      .cls-1 {        fill: #fff;      }    </style></defs><path class="cls-1" d="M44.89,33.25h32.94C77.83,15.06,63.08.31,44.89.31S11.95,15.06,11.95,33.25s14.75,32.94,32.94,32.94v-32.94Z"></path><path class="cls-1" d="M68.18,79.82h11.64c6.42,0,11.64-5.22,11.64-11.64s-5.22-11.64-11.64-11.64h-11.64v23.29Z"></path><path class="cls-1" d="M127.54,66.5h0s-22.86-22.86-22.86-22.86c6.23,6.31,10.07,14.97,10.07,24.54,0,19.29-15.64,34.93-34.93,34.93h-11.64v23.29h-23.29l23.29,23.29h23.29v-23.29h11.64c19.29,0,34.93-15.64,34.93-34.93,0-9.79-4.03-18.63-10.51-24.97Z"></path></svg>